<?xml version="1.0" encoding="UTF-8" standalone="no"?>
<!-- Created with Inkscape (http://www.inkscape.org/) -->

<svg
   xmlns:osb="http://www.openswatchbook.org/uri/2009/osb"
   xmlns:dc="http://purl.org/dc/elements/1.1/"
   xmlns:cc="http://creativecommons.org/ns#"
   xmlns:rdf="http://www.w3.org/1999/02/22-rdf-syntax-ns#"
   xmlns:svg="http://www.w3.org/2000/svg"
   xmlns="http://www.w3.org/2000/svg"
   xmlns:sodipodi="http://sodipodi.sourceforge.net/DTD/sodipodi-0.dtd"
   xmlns:inkscape="http://www.inkscape.org/namespaces/inkscape"
   width="297mm"
   height="420mm"
   viewBox="0 0 1052.3622 1488.189"
   id="svg2"
   version="1.1"
   inkscape:version="0.91 r13725"
   sodipodi:docname="Lampe.svg">
  <defs
     id="defs4">
    <linearGradient
       id="linearGradient4548"
       osb:paint="solid">
      <stop
         style="stop-color:#000000;stop-opacity:1;"
         offset="0"
         id="stop4550" />
    </linearGradient>
    <linearGradient
       id="linearGradient4151"
       osb:paint="solid">
      <stop
         style="stop-color:#31e5e8;stop-opacity:1;"
         offset="0"
         id="stop4153" />
    </linearGradient>
    <linearGradient
       id="linearGradient5638"
       osb:paint="solid">
      <stop
         style="stop-color:#000000;stop-opacity:1;"
         offset="0"
         id="stop5640" />
    </linearGradient>
    <linearGradient
       id="linearGradient5620"
       osb:paint="solid">
      <stop
         style="stop-color:#000000;stop-opacity:1;"
         offset="0"
         id="stop5622" />
    </linearGradient>
    <linearGradient
       id="linearGradient5614"
       osb:paint="solid">
      <stop
         style="stop-color:#31e5e8;stop-opacity:1;"
         offset="0"
         id="stop5616" />
    </linearGradient>
  </defs>
  <sodipodi:namedview
     id="base"
     pagecolor="#ffffff"
     bordercolor="#666666"
     borderopacity="1.0"
     inkscape:pageopacity="0.0"
     inkscape:pageshadow="2"
     inkscape:zoom="0.80675645"
     inkscape:cx="520.37513"
     inkscape:cy="453.63348"
     inkscape:document-units="mm"
     inkscape:current-layer="layer1"
     showgrid="false"
     inkscape:window-width="1519"
     inkscape:window-height="1837"
     inkscape:window-x="128"
     inkscape:window-y="157"
     inkscape:window-maximized="0"
     showguides="true"
     inkscape:snap-intersection-paths="true"
     inkscape:object-paths="true"
     inkscape:guide-bbox="true"
     inkscape:snap-global="false">
    <inkscape:grid
       type="xygrid"
       id="grid8483" />
    <sodipodi:guide
       position="-190.16394,596.72133"
       orientation="1,0"
       id="guide8485" />
    <sodipodi:guide
       position="424.26408,1012.0649"
       orientation="-0.89609944,0.44385335"
       id="guide8487"
       inkscape:label=""
       inkscape:color="rgb(0,0,255)" />
    <sodipodi:guide
       position="-424.26408,498.45233"
       orientation="1,0"
       id="guide8577" />
  </sodipodi:namedview>
  <metadata
     id="metadata7">
    <rdf:RDF>
      <cc:Work
         rdf:about="">
        <dc:format>image/svg+xml</dc:format>
        <dc:type
           rdf:resource="http://purl.org/dc/dcmitype/StillImage" />
        <dc:title></dc:title>
        <cc:license
           rdf:resource="http://creativecommons.org/licenses/by-nc-sa/3.0/" />
      </cc:Work>
      <cc:License
         rdf:about="http://creativecommons.org/licenses/by-nc-sa/3.0/">
        <cc:permits
           rdf:resource="http://creativecommons.org/ns#Reproduction" />
        <cc:permits
           rdf:resource="http://creativecommons.org/ns#Distribution" />
        <cc:requires
           rdf:resource="http://creativecommons.org/ns#Notice" />
        <cc:requires
           rdf:resource="http://creativecommons.org/ns#Attribution" />
        <cc:prohibits
           rdf:resource="http://creativecommons.org/ns#CommercialUse" />
        <cc:permits
           rdf:resource="http://creativecommons.org/ns#DerivativeWorks" />
        <cc:requires
           rdf:resource="http://creativecommons.org/ns#ShareAlike" />
      </cc:License>
    </rdf:RDF>
  </metadata>
  <g
     inkscape:label="Calque 1"
     inkscape:groupmode="layer"
     id="layer1"
     transform="translate(0,435.82677)">
    <path
       style="fill:none;fill-opacity:1;stroke:#000000;stroke-width:1.77165353;stroke-miterlimit:4;stroke-dasharray:none;stroke-opacity:1"
       d="M 829.05359,2.7330552 A 195.08181,194.07047 0 0 0 1022.1649,196.70572 l 0,-8.84961 17.7168,0 0,-51.37695 -17.7168,0 0,-10.63867 A 123.49217,123.17381 0 0 1 899.92079,2.7291552 123.49217,123.17381 0 0 1 1022.1649,-120.4017 l 0,-10.64063 17.7168,0 0,-51.37695 -17.7168,0 0,-8.84961 A 195.08181,194.07047 0 0 0 829.05359,2.7330552 Z"
       id="path4149-2-6"
       inkscape:connector-curvature="0" />
    <path
       style="fill:none;fill-opacity:1;stroke:#000000;stroke-width:1.77165341;stroke-miterlimit:4;stroke-dasharray:none;stroke-opacity:1"
       d="M 364.47002,-57.255951 A 353.58784,356.15854 0 0 0 717.87823,-409.81454 l -8.84962,0 0,-17.7168 -51.37695,0 0,17.7168 -10.64063,0 A 282.69128,284.56892 0 0 1 364.46416,-128.12315 282.69128,284.56892 0 0 1 81.872358,-409.81454 l -10.63867,0 0,-17.7168 -51.37889,0 0,17.7168 -8.8496,0 A 353.58784,356.15854 0 0 0 364.47002,-57.255951 Z"
       id="path4149-2-6-4-3-5"
       inkscape:connector-curvature="0" />
    <path
       style="fill:none;fill-opacity:1;stroke:#000000;stroke-width:1.77165329;stroke-miterlimit:4;stroke-dasharray:none;stroke-opacity:1"
       d="M 616.45597,2.7506342 A 409.85079,406.76027 0 0 0 1022.1649,409.30338 l 0,-8.84961 17.7168,0 0,-51.37695 -17.7168,0 0,-10.63868 A 338.26118,335.86373 0 0 1 687.32307,2.7447842 338.26118,335.86373 0 0 1 1022.1649,-333.00131 l 0,-10.63867 17.7168,0 0,-51.37891 -17.7168,0 0,-8.84765 A 409.85079,406.76027 0 0 0 616.45597,2.7506342 Z"
       id="path4149-2-6-4-3-5-0"
       inkscape:connector-curvature="0" />
    <path
       style="fill:none;fill-opacity:1;stroke:#000000;stroke-width:1.77165353;stroke-linecap:butt;stroke-miterlimit:4;stroke-dasharray:none;stroke-opacity:1"
       d="m 935.35435,2.7262172 a 87.696846,87.725886 0 0 0 86.81055,87.6796998 l 0,-8.849609 17.7168,0 0,-51.376961 -17.7168,0 0,-10.63867 a 16.107673,16.829002 0 0 1 -15.9433,-16.8203198 16.107673,16.829002 0 0 1 15.9433,-16.8242102 l 0,-10.638679 17.7168,0 0,-51.378898 -17.7168,0 0,-8.847658 A 87.696846,87.725886 0 0 0 935.35435,2.7262172 Z"
       id="path4149"
       inkscape:connector-curvature="0" />
    <path
       style="fill:none;fill-opacity:1;stroke:#000000;stroke-width:1.77165341;stroke-miterlimit:4;stroke-dasharray:none;stroke-opacity:1"
       d="m 364.45245,-267.8165 a 140.89798,141.38958 0 0 0 140.82618,-139.96092 l -8.8496,0 0,-17.7168 -51.37696,0 0,17.7168 -10.64062,0 a 70.000986,69.799924 0 0 1 -69.96486,69.09372 70.000986,69.799924 0 0 1 -69.97656,-69.09372 l -10.63867,0 0,-17.7168 -51.37891,0 0,17.71681 -8.84765,0 a 140.89798,141.38958 0 0 0 140.84765,139.96091 z"
       id="path4149-2"
       inkscape:connector-curvature="0" />
    <path
       style="fill:none;fill-opacity:1;stroke:#000000;stroke-width:1.77165353;stroke-miterlimit:4;stroke-dasharray:none;stroke-opacity:1"
       d="m 366.10058,-159.87839 a 247.24293,248.77406 0 0 0 247.11719,-246.25969 l -8.84961,0 0,-17.7168 -51.37696,0 0,17.7168 -10.64062,0 A 176.34631,177.18443 0 0 1 366.09472,-230.7456 176.34631,177.18443 0 0 1 189.80957,-406.13808 l -10.63868,0 0,-17.7168 -51.37694,0 0,17.7168 -8.84961,0 a 247.24293,248.77406 0 0 0 247.15624,246.25969 z"
       id="path4149-2-6-4"
       inkscape:connector-curvature="0" />
    <path
       style="fill:none;fill-opacity:1;stroke:#000000;stroke-width:1.77165353;stroke-miterlimit:4;stroke-dasharray:none;stroke-opacity:1"
       d="M 722.75665,2.7428252 A 302.46632,300.41557 0 0 0 1022.1649,303.00455 l 0,-8.84961 17.7168,0 0,-51.37696 -17.7168,0 0,-10.63868 A 230.87666,229.51893 0 0 1 793.62195,2.7369652 230.87666,229.51893 0 0 1 1022.1649,-226.70053 l 0,-10.64062 17.7168,0 0,-51.37696 -17.7168,0 0,-8.84961 A 302.46632,300.41557 0 0 0 722.75665,2.7428252 Z"
       id="path4149-2-6-4-3"
       inkscape:connector-curvature="0" />
    <path
       style="fill:none;stroke:#000000;stroke-opacity:1"
       d="m 977.63015,1002.0012 -2.64379,-112.03503 -76.23866,40.20257 47.53359,73.11046 z m -2.38226,-129.27738 -103.93222,-2.32292 17.58111,37.8559 z m -43.31771,132.69898 -45.12914,-68.60386 -47.79676,22.27398 64.08139,48.72828 z m -112.16205,-41.69483 -147.25759,49.77143 207.65212,-7.7146 z m 35.96008,-92.93738 -122.45765,2.03645 77.53411,63.45589 66.09417,-22.62886 z m -69.88842,72.07118 -61.0713,-58.98094 -68.00666,76.54038 23.62513,21.14606 z m -77.29456,-68.89109 -141.15705,-1.69795 78.24279,82.29592 z m -34.61517,113.17962 -22.52154,-15.35486 -28.07375,40.42236 z m -37.02959,-18.94103 -57.43544,-52.25803 -47.31056,-43.68552 -30.99481,22.33691 -46.31097,35.44178 154.49322,76.42309 z m -133.65106,-97.2215 -96.82326,0.56978 35.25562,44.87654 z m -97.34586,101.56362 -37.74394,36.04871 195.7408,-0.1194 z m 151.11802,22.13067 -109.55762,-60.63003 -30.69737,27.61761 z M 429.48555,925.92675 381.4512,872.47835 297.98701,938.29542 399.551,958.33617 Z m -42.93508,48.3067 -94.72294,-25.83811 54.09863,60.39056 z m -32.61801,-100.81301 -65.82893,-1.15268 5.61151,54.68513 z M 327.5577,1007.3395 279.82629,952.60833 116.26086,931.40952 181.6691,1007.8483 Z m -44.2811,-66.74473 -8.57709,-69.28051 -52.66554,0.59531 -43.09755,50.7605 z m -82.9862,-69.1281 -106.392054,2.0218 4.286812,45.28316 64.169842,1.64172 z m -33.33666,136.54363 -66.44287,-75.36041 0.18612,75.13781 z"
       id="path9170"
       inkscape:connector-curvature="0"
       sodipodi:nodetypes="ccccccccccccccccccccccccccccccccccccccccccccccccccccccccccccccccccccccccccccccccccccccc" />
  </g>
  <g
     inkscape:groupmode="layer"
     id="layer2"
     inkscape:label="Triangle"
     style="display:inline">
    <path
       style="display:inline;fill:none;fill-rule:evenodd;stroke:#000000;stroke-width:1px;stroke-linecap:butt;stroke-linejoin:miter;stroke-opacity:1"
       d="m 4.7007329,204.83612 2.269278,956.30808 95.2175991,-47.4355 -3.420093,-6.8281 61.777393,-30.9436 3.48658,6.9609 191.87941,-95.59005 -3.69475,-7.3764 61.77738,-30.94359 3.76126,7.50919 191.87767,-95.58925 -3.96941,-7.92481 61.77913,-30.94435 4.03586,8.05749 95.2176,-47.43559 L 4.7007329,204.83612 Z m 0.412302,119.4241 0.0021,-8.5e-4 8.8560451,-0.0211 0.02975,12.40142 -8.8604061,0.0212 -0.02714,-12.40056 z m 94.3226121,-46.99817 9.882473,7.49255 -5.35107,7.05789 -9.882473,-7.49255 5.35107,-7.05789 z m -86.703613,120.51749 45.988233,-22.9104 7.10878,14.27084 -45.98824,22.91042 -7.108773,-14.27086 z m 95.145156,-47.40142 45.98822,-22.91042 7.10877,14.27085 -45.98822,22.91043 -7.10877,-14.27086 z m 9.50898,80.64195 380.02238,287.86166 -63.502,31.63484 -7.28196,-14.61668 -93.55775,46.61072 7.28198,14.61668 -65.01605,32.38873 -7.28197,-14.6166 -93.56123,46.61241 7.28198,14.6167 -63.50199,31.63473 -0.88339,-476.74319 z m -104.826596,85.60488 45.986473,-22.90953 7.1114,14.27173 -45.98648,22.90959 -7.111393,-14.27179 z m 190.291166,-94.8011 45.98822,-22.9104 7.10965,14.27259 -45.98822,22.91041 -7.10965,-14.2726 z M 5.6830019,572.29047 l 8.8560351,-0.0211 0.02976,12.40142 -8.8586591,0.0202 -0.02714,-12.40056 z M 297.08294,427.11393 l 9.88246,7.49256 -5.35107,7.05789 -9.88247,-7.49256 5.35108,-7.05789 z m -284.695802,208.3565 45.988209,-22.91048 7.10965,14.27258 -45.98822,22.91049 -7.109639,-14.27259 z m 285.437152,-142.20087 45.98651,-22.90947 7.11139,14.27171 -45.98651,22.90947 -7.11139,-14.27171 z m -285.6096,261.04625 45.986467,-22.90957 7.10965,14.27257 -45.98472,22.90878 -7.111397,-14.27178 z m 380.58317,-189.6005 45.98737,-22.91212 7.10964,14.27257 -45.98736,22.91213 -7.10965,-14.27258 z M 6.2106859,802.60434 l 8.8569121,-0.0239 0.02803,12.40242 -8.8569161,0.0237 -0.02803,-12.40231 z M 480.61355,566.26191 l 9.88072,7.49345 -5.35106,7.05786 -9.88247,-7.49254 5.35281,-7.05877 z M 12.042234,873.16129 58.028707,850.2517 l 7.10879,14.27083 -45.98651,22.90948 -7.108753,-14.27072 z m 475.728316,-237.00201 45.98648,-22.90958 7.10879,14.27092 -45.98649,22.90958 -7.10878,-14.27092 z m -475.90251,355.84827 45.988227,-22.9105 7.10873,14.2709 -45.98822,22.91045 -7.108737,-14.27085 z M 582.74239,707.606 l 45.98821,-22.91049 7.11055,14.27003 -45.98827,22.91037 -7.11049,-14.26991 z m -575.9643841,343.0275 8.8586631,-0.025 0.02804,12.4024 -8.8595551,0.023 -0.02714,-12.4006 z M 678.25909,716.11026 l 9.88071,7.49345 -5.35021,7.05961 -9.88245,-7.49255 5.35195,-7.06051 z m -666.563496,394.74264 45.986473,-22.9096 7.11138,14.2718 -45.98648,22.9096 -7.111373,-14.2718 z m 666.022066,-331.80209 45.98825,-22.91037 7.10965,14.27258 -45.98826,22.91036 -7.10964,-14.27257 z"
       id="path4725"
       inkscape:connector-curvature="0" />
    <path
       style="opacity:1;fill:none;fill-opacity:1;stroke:#000000;stroke-width:1.77165353;stroke-linecap:butt;stroke-linejoin:miter;stroke-miterlimit:4;stroke-dasharray:none;stroke-opacity:1"
       d="m 297.34948,1070.1317 0,10.6309 -106.29883,0 0,175.3925 106.29883,0 0,10.6309 69.09375,0 0,-10.6309 214.37109,0 0,10.6309 69.09375,0 0,-10.6309 214.36914,0 0,10.6309 69.0957,0 0,-10.6309 106.29879,0 0,-175.3925 -106.29879,0 0,-10.6309 -69.0957,0 0,10.6309 -214.36914,0 0,-10.6309 -69.09375,0 0,10.6309 -214.37109,0 0,-10.6309 -69.09375,0 z m 318.01172,49.6074 a 48.720474,48.72047 0 0 1 48.7207,48.7188 48.720474,48.72047 0 0 1 -48.7207,48.7207 48.720474,48.72047 0 0 1 -48.72071,-48.7207 48.720474,48.72047 0 0 1 48.72071,-48.7188 z"
       id="rect8527"
       inkscape:connector-curvature="0" />
  </g>
  <g
     inkscape:groupmode="layer"
     id="layer4"
     inkscape:label="Cote"
     style="display:inline">
    <path
       style="display:inline;opacity:1;fill:none;fill-opacity:1;stroke:#000000;stroke-width:0.99921262;stroke-linecap:butt;stroke-linejoin:miter;stroke-miterlimit:4;stroke-dasharray:none;stroke-opacity:1"
       d="m 1000.1692,1291.5201 -117.31456,0 0,-13.7852 -12.4023,0 0,13.7852 -235.62891,0 0,-13.7852 -12.40234,0 0,13.7852 -217.91407,0 0,-13.7852 -12.4004,0 0,13.7852 -235.6309,0 0,-13.7852 -12.4003,0 0,13.7852 -99.599688,0 0,176.168 99.599688,0 0,13.7871 12.4003,0 0,-13.7871 235.6309,0 0,13.7871 12.4004,0 0,-13.7871 217.91407,0 0,13.7871 12.40234,0 0,-13.7871 235.62891,0 0,13.7871 12.4023,0 0,-13.7871 117.31456,0 0,-176.168 z"
       id="rect4178"
       inkscape:connector-curvature="0" />
  </g>
  <g
     inkscape:groupmode="layer"
     id="layer5"
     inkscape:label="tenons"
     style="display:inline" />
  <g
     inkscape:groupmode="layer"
     id="layer3"
     inkscape:label="tracé"
     style="display:none">
    <path
       style="fill:none;fill-opacity:1;fill-rule:evenodd;stroke:#000000;stroke-width:0.99921262;stroke-linecap:butt;stroke-linejoin:miter;stroke-miterlimit:4;stroke-dasharray:none;stroke-opacity:1"
       d="m 0,1451.8701 850.3937,0"
       id="path4807"
       inkscape:connector-curvature="0" />
    <path
       style="fill:none;fill-opacity:1;fill-rule:evenodd;stroke:#000000;stroke-width:0.99921262;stroke-linecap:butt;stroke-linejoin:miter;stroke-miterlimit:4;stroke-dasharray:none;stroke-opacity:1"
       d="m 0,1345.9571 850.3937,0"
       id="path4807-5"
       inkscape:connector-curvature="0" />
    <path
       style="fill:none;fill-opacity:1;fill-rule:evenodd;stroke:#000000;stroke-width:0.99921262;stroke-linecap:butt;stroke-linejoin:miter;stroke-miterlimit:4;stroke-dasharray:none;stroke-opacity:1"
       d="m 0,1239.6579 850.3937,0"
       id="path4807-5-6"
       inkscape:connector-curvature="0" />
    <path
       style="fill:none;fill-opacity:1;fill-rule:evenodd;stroke:#000000;stroke-width:0.99921262;stroke-linecap:butt;stroke-linejoin:miter;stroke-miterlimit:4;stroke-dasharray:none;stroke-opacity:1"
       d="m 0,1133.3587 850.3937,0"
       id="path4807-5-0"
       inkscape:connector-curvature="0" />
    <path
       style="fill:none;fill-opacity:1;fill-rule:evenodd;stroke:#000000;stroke-width:0.99921262;stroke-linecap:butt;stroke-linejoin:miter;stroke-miterlimit:4;stroke-dasharray:none;stroke-opacity:1"
       d="m 0,1027.0594 850.3937,0"
       id="path4807-5-2"
       inkscape:connector-curvature="0" />
    <path
       style="fill:none;fill-opacity:1;fill-rule:evenodd;stroke:#000000;stroke-width:0.99921262;stroke-linecap:butt;stroke-linejoin:miter;stroke-miterlimit:4;stroke-dasharray:none;stroke-opacity:1"
       d="m 0,920.76024 850.3937,0"
       id="path4807-5-7"
       inkscape:connector-curvature="0" />
    <path
       style="fill:none;fill-opacity:1;fill-rule:evenodd;stroke:#000000;stroke-width:0.99921262;stroke-linecap:butt;stroke-linejoin:miter;stroke-miterlimit:4;stroke-dasharray:none;stroke-opacity:1"
       d="m 0,814.46102 850.3937,0"
       id="path4807-5-4"
       inkscape:connector-curvature="0" />
    <rect
       style="display:inline;opacity:1;fill:none;fill-opacity:1;stroke:#000000;stroke-width:1.77165353;stroke-linecap:butt;stroke-linejoin:miter;stroke-miterlimit:4;stroke-dasharray:none;stroke-opacity:1"
       id="rect8382"
       width="97.440941"
       height="97.440941"
       x="745.12421"
       y="1145.8663"
       transform="matrix(0.89595738,0.44414003,-0.44414003,0.89595738,0,0)" />
    <rect
       style="display:inline;opacity:1;fill:none;fill-opacity:1;stroke:#000000;stroke-width:1.77165353;stroke-linecap:butt;stroke-linejoin:miter;stroke-miterlimit:4;stroke-dasharray:none;stroke-opacity:1"
       id="rect8420"
       width="97.440941"
       height="97.440948"
       x="282.66577"
       y="1701.7946"
       transform="matrix(0.8961713,-0.44370825,0.44370825,0.8961713,0,0)" />
  </g>
  <g
     inkscape:groupmode="layer"
     id="layer6"
     inkscape:label="support">
    <path
       style="opacity:1;fill:none;fill-opacity:1;stroke:#000000;stroke-width:1.77165353;stroke-linecap:butt;stroke-linejoin:miter;stroke-miterlimit:4;stroke-dasharray:none;stroke-opacity:1"
       d="m 1047.7176,854.79914 -69.09397,0 0,14.1719 -108.0703,0 0,-14.1719 -69.0957,0 0,14.1719 -108.07026,0 0,-14.1719 -69.0937,0 0,14.1719 0,1.77151 0,171.84965 0,1.7714 0,14.1739 69.0937,0 0,-14.1739 108.07026,0 0,14.1739 69.0957,0 0,-14.1739 108.0703,0 0,14.1739 69.09397,0 0,-14.1739 0,-1.7714 0,-171.84965 0,-1.77151 0,-14.1719 z m -162.99037,101.8691 a 48.72047,48.720474 0 0 1 -48.7207,48.72076 48.72047,48.720474 0 0 1 -48.7207,-48.72076 48.72047,48.720474 0 0 1 48.7207,-48.7207 48.72047,48.720474 0 0 1 48.7207,48.7207 z"
       id="rect8423"
       inkscape:connector-curvature="0" />
  </g>
</svg>
