<?xml version="1.0" encoding="UTF-8" standalone="no"?>
<!-- Created with Inkscape (http://www.inkscape.org/) -->

<svg
   xmlns:osb="http://www.openswatchbook.org/uri/2009/osb"
   xmlns:dc="http://purl.org/dc/elements/1.1/"
   xmlns:cc="http://creativecommons.org/ns#"
   xmlns:rdf="http://www.w3.org/1999/02/22-rdf-syntax-ns#"
   xmlns:svg="http://www.w3.org/2000/svg"
   xmlns="http://www.w3.org/2000/svg"
   xmlns:sodipodi="http://sodipodi.sourceforge.net/DTD/sodipodi-0.dtd"
   xmlns:inkscape="http://www.inkscape.org/namespaces/inkscape"
   width="297mm"
   height="420mm"
   viewBox="0 0 1052.3622 1488.189"
   id="svg2"
   version="1.1"
   inkscape:version="0.91 r13725"
   sodipodi:docname="Lampe.svg">
  <defs
     id="defs4">
    <inkscape:path-effect
       effect="powerstroke"
       id="path-effect4805"
       is_visible="true"
       offset_points="0,0.5"
       sort_points="true"
       interpolator_type="CubicBezierJohan"
       interpolator_beta="0.2"
       start_linecap_type="zerowidth"
       linejoin_type="round"
       miter_limit="4"
       end_linecap_type="zerowidth"
       cusp_linecap_type="round" />
    <inkscape:path-effect
       effect="powerstroke"
       id="path-effect4737"
       is_visible="true"
       offset_points="0,0.5"
       sort_points="true"
       interpolator_type="CubicBezierJohan"
       interpolator_beta="0.2"
       start_linecap_type="zerowidth"
       linejoin_type="round"
       miter_limit="4"
       end_linecap_type="zerowidth"
       cusp_linecap_type="round" />
    <inkscape:path-effect
       effect="powerstroke"
       id="path-effect4729"
       is_visible="true"
       offset_points="0,0.5"
       sort_points="true"
       interpolator_type="CubicBezierJohan"
       interpolator_beta="0.2"
       start_linecap_type="zerowidth"
       linejoin_type="round"
       miter_limit="4"
       end_linecap_type="zerowidth"
       cusp_linecap_type="round" />
    <linearGradient
       id="linearGradient4548"
       osb:paint="solid">
      <stop
         style="stop-color:#000000;stop-opacity:1;"
         offset="0"
         id="stop4550" />
    </linearGradient>
    <linearGradient
       id="linearGradient4151"
       osb:paint="solid">
      <stop
         style="stop-color:#31e5e8;stop-opacity:1;"
         offset="0"
         id="stop4153" />
    </linearGradient>
    <linearGradient
       id="linearGradient5638"
       osb:paint="solid">
      <stop
         style="stop-color:#000000;stop-opacity:1;"
         offset="0"
         id="stop5640" />
    </linearGradient>
    <linearGradient
       id="linearGradient5620"
       osb:paint="solid">
      <stop
         style="stop-color:#000000;stop-opacity:1;"
         offset="0"
         id="stop5622" />
    </linearGradient>
    <linearGradient
       id="linearGradient5614"
       osb:paint="solid">
      <stop
         style="stop-color:#31e5e8;stop-opacity:1;"
         offset="0"
         id="stop5616" />
    </linearGradient>
  </defs>
  <sodipodi:namedview
     id="base"
     pagecolor="#ffffff"
     bordercolor="#666666"
     borderopacity="1.0"
     inkscape:pageopacity="0.0"
     inkscape:pageshadow="2"
     inkscape:zoom="0.43133514"
     inkscape:cx="798.94172"
     inkscape:cy="1743.3373"
     inkscape:document-units="mm"
     inkscape:current-layer="layer2"
     showgrid="false"
     inkscape:window-width="1519"
     inkscape:window-height="1837"
     inkscape:window-x="14"
     inkscape:window-y="176"
     inkscape:window-maximized="0"
     showguides="true"
     inkscape:snap-intersection-paths="true"
     inkscape:object-paths="true"
     inkscape:guide-bbox="true">
    <inkscape:grid
       type="xygrid"
       id="grid8483" />
    <sodipodi:guide
       position="-190.16394,596.72133"
       orientation="1,0"
       id="guide8485" />
    <sodipodi:guide
       position="498.36066,696.72133"
       orientation="-0.89609944,0.44385335"
       id="guide8487"
       inkscape:label=""
       inkscape:color="rgb(0,0,255)" />
  </sodipodi:namedview>
  <metadata
     id="metadata7">
    <rdf:RDF>
      <cc:Work
         rdf:about="">
        <dc:format>image/svg+xml</dc:format>
        <dc:type
           rdf:resource="http://purl.org/dc/dcmitype/StillImage" />
        <dc:title></dc:title>
      </cc:Work>
    </rdf:RDF>
  </metadata>
  <g
     inkscape:label="Calque 1"
     inkscape:groupmode="layer"
     id="layer1"
     transform="translate(0,435.82677)">
    <path
       style="fill:none;fill-opacity:1;stroke:#000000;stroke-width:1.77165353;stroke-miterlimit:4;stroke-dasharray:none;stroke-opacity:1"
       d="M 829.05359,2.7330552 A 195.08181,194.07047 0 0 0 1022.1649,196.70572 l 0,-8.84961 17.7168,0 0,-51.37695 -17.7168,0 0,-10.63867 A 123.49217,123.17381 0 0 1 899.92079,2.7291552 123.49217,123.17381 0 0 1 1022.1649,-120.4017 l 0,-10.64063 17.7168,0 0,-51.37695 -17.7168,0 0,-8.84961 A 195.08181,194.07047 0 0 0 829.05359,2.7330552 Z"
       id="path4149-2-6"
       inkscape:connector-curvature="0" />
    <path
       style="fill:none;fill-opacity:1;stroke:#000000;stroke-width:1.77165341;stroke-miterlimit:4;stroke-dasharray:none;stroke-opacity:1"
       d="M 364.47002,-50.300802 A 353.58784,356.15854 0 0 0 717.87823,-402.85939 l -8.84962,0 0,-17.7168 -51.37695,0 0,17.7168 -10.64063,0 A 282.69128,284.56892 0 0 1 364.46416,-121.168 282.69128,284.56892 0 0 1 81.872358,-402.85939 l -10.63867,0 0,-17.7168 -51.37889,0 0,17.7168 -8.8496,0 A 353.58784,356.15854 0 0 0 364.47002,-50.300802 Z"
       id="path4149-2-6-4-3-5"
       inkscape:connector-curvature="0" />
    <path
       style="fill:none;fill-opacity:1;stroke:#000000;stroke-width:1.77165329;stroke-miterlimit:4;stroke-dasharray:none;stroke-opacity:1"
       d="M 616.45597,2.7506342 A 409.85079,406.76027 0 0 0 1022.1649,409.30338 l 0,-8.84961 17.7168,0 0,-51.37695 -17.7168,0 0,-10.63868 A 338.26118,335.86373 0 0 1 687.32307,2.7447842 338.26118,335.86373 0 0 1 1022.1649,-333.00131 l 0,-10.63867 17.7168,0 0,-51.37891 -17.7168,0 0,-8.84765 A 409.85079,406.76027 0 0 0 616.45597,2.7506342 Z"
       id="path4149-2-6-4-3-5-0"
       inkscape:connector-curvature="0" />
    <path
       style="fill:none;fill-opacity:1;stroke:#000000;stroke-width:1.77165353;stroke-linecap:butt;stroke-miterlimit:4;stroke-dasharray:none;stroke-opacity:1"
       d="m 935.35435,2.7262172 a 87.696846,87.725886 0 0 0 86.81055,87.6796998 l 0,-8.849609 17.7168,0 0,-51.376961 -17.7168,0 0,-10.63867 a 16.107673,16.829002 0 0 1 -15.9433,-16.8203198 16.107673,16.829002 0 0 1 15.9433,-16.8242102 l 0,-10.638679 17.7168,0 0,-51.378898 -17.7168,0 0,-8.847658 A 87.696846,87.725886 0 0 0 935.35435,2.7262172 Z"
       id="path4149"
       inkscape:connector-curvature="0" />
    <path
       style="fill:none;fill-opacity:1;stroke:#000000;stroke-width:1.77165341;stroke-miterlimit:4;stroke-dasharray:none;stroke-opacity:1"
       d="m 364.45245,-262.89847 a 140.89798,141.38958 0 0 0 140.82618,-139.96092 l -8.8496,0 0,-17.7168 -51.37696,0 0,17.7168 -10.64062,0 a 70.000986,69.799924 0 0 1 -69.96486,69.09372 70.000986,69.799924 0 0 1 -69.97656,-69.09372 l -10.63867,0 0,-17.7168 -51.37891,0 0,17.71681 -8.84765,0 a 140.89798,141.38958 0 0 0 140.84765,139.96091 z"
       id="path4149-2"
       inkscape:connector-curvature="0" />
    <path
       style="fill:none;fill-opacity:1;stroke:#000000;stroke-width:1.77165353;stroke-miterlimit:4;stroke-dasharray:none;stroke-opacity:1"
       d="m 364.46124,-156.5997 a 247.24293,248.77406 0 0 0 247.11719,-246.25969 l -8.84961,0 0,-17.7168 -51.37696,0 0,17.7168 -10.64062,0 A 176.34631,177.18443 0 0 1 364.45538,-227.46691 176.34631,177.18443 0 0 1 188.17023,-402.85939 l -10.63868,0 0,-17.7168 -51.37694,0 0,17.7168 -8.84961,0 a 247.24293,248.77406 0 0 0 247.15624,246.25969 z"
       id="path4149-2-6-4"
       inkscape:connector-curvature="0" />
    <path
       style="fill:none;fill-opacity:1;stroke:#000000;stroke-width:1.77165353;stroke-miterlimit:4;stroke-dasharray:none;stroke-opacity:1"
       d="M 722.75665,2.7428252 A 302.46632,300.41557 0 0 0 1022.1649,303.00455 l 0,-8.84961 17.7168,0 0,-51.37696 -17.7168,0 0,-10.63868 A 230.87666,229.51893 0 0 1 793.62195,2.7369652 230.87666,229.51893 0 0 1 1022.1649,-226.70053 l 0,-10.64062 17.7168,0 0,-51.37696 -17.7168,0 0,-8.84961 A 302.46632,300.41557 0 0 0 722.75665,2.7428252 Z"
       id="path4149-2-6-4-3"
       inkscape:connector-curvature="0" />
  </g>
  <g
     inkscape:groupmode="layer"
     id="layer2"
     inkscape:label="Triangle"
     style="display:inline">
    <path
       style="display:inline;fill:none;fill-rule:evenodd;stroke:#000000;stroke-width:1px;stroke-linecap:butt;stroke-linejoin:miter;stroke-opacity:1"
       d="M 627.17383 630.70898 L 202.77344 1487.6895 L 1051.5566 1487.6895 L 627.17383 630.70898 z M 679.67383 737.7793 L 685.17773 748.89258 L 677.24023 752.82422 L 671.73633 741.71094 L 679.67383 737.7793 z M 574.29102 737.78516 L 582.22852 741.7168 L 576.72461 752.83008 L 568.78516 748.89844 L 574.29102 737.78516 z M 548.32617 806.98828 L 599.70508 806.98828 L 599.70508 822.93164 L 548.32617 822.93164 L 548.32617 806.98828 z M 654.625 806.98828 L 706.00391 806.98828 L 706.00391 822.93164 L 654.625 822.93164 L 654.625 806.98828 z M 627.17773 883.4082 L 838.96484 1310.5234 L 768.01953 1310.5234 L 768.01953 1294.1934 L 663.49219 1294.1934 L 663.49219 1310.5234 L 590.85547 1310.5234 L 590.85547 1294.1934 L 486.32617 1294.1934 L 486.32617 1310.5234 L 415.38086 1310.5234 L 627.17773 883.4082 z M 495.17773 913.28711 L 546.55469 913.28711 L 546.55469 929.23242 L 495.17773 929.23242 L 495.17773 913.28711 z M 707.77539 913.28711 L 759.1543 913.28711 L 759.1543 929.23242 L 707.77539 929.23242 L 707.77539 913.28711 z M 789.76172 960.04102 L 795.26562 971.1543 L 787.32812 975.08594 L 781.82422 963.97266 L 789.76172 960.04102 z M 464.19922 960.04492 L 472.13672 963.97656 L 466.63281 975.08984 L 458.69531 971.1582 L 464.19922 960.04492 z M 442.02734 1019.5859 L 493.40625 1019.5859 L 493.40625 1035.5312 L 442.02734 1035.5312 L 442.02734 1019.5859 z M 760.92578 1019.5859 L 812.30273 1019.5859 L 812.30273 1035.5312 L 760.92578 1035.5312 L 760.92578 1019.5859 z M 388.87891 1125.8848 L 440.25586 1125.8848 L 440.25586 1141.8301 L 388.87891 1141.8301 L 388.87891 1125.8848 z M 814.07422 1125.8848 L 865.45312 1125.8848 L 865.45312 1141.8301 L 814.07422 1141.8301 L 814.07422 1125.8848 z M 891.98633 1166.4277 L 897.49023 1177.541 L 889.55273 1181.4727 L 884.04883 1170.3594 L 891.98633 1166.4277 z M 361.9707 1166.4297 L 369.91016 1170.3613 L 364.4043 1181.4746 L 356.4668 1177.543 L 361.9707 1166.4297 z M 335.72852 1232.1855 L 387.10547 1232.1855 L 387.10547 1248.1289 L 335.72852 1248.1289 L 335.72852 1232.1855 z M 867.22461 1232.1855 L 918.60156 1232.1855 L 918.60156 1248.1289 L 867.22461 1248.1289 L 867.22461 1232.1855 z M 282.57812 1338.4844 L 333.95703 1338.4844 L 333.95703 1354.4277 L 282.57812 1354.4277 L 282.57812 1338.4844 z M 920.37305 1338.4844 L 971.75195 1338.4844 L 971.75195 1354.4277 L 920.37305 1354.4277 L 920.37305 1338.4844 z M 251.88086 1388.6895 L 259.81836 1392.6211 L 254.31445 1403.7344 L 246.375 1399.8027 L 251.88086 1388.6895 z M 1002.0742 1388.6895 L 1007.5781 1399.8027 L 999.64062 1403.7344 L 994.13672 1392.6211 L 1002.0742 1388.6895 z M 229.42969 1444.7832 L 280.80664 1444.7832 L 280.80664 1460.7285 L 229.42969 1460.7285 L 229.42969 1444.7832 z M 973.52344 1444.7832 L 1024.9023 1444.7832 L 1024.9023 1460.7285 L 973.52344 1460.7285 L 973.52344 1444.7832 z "
       id="path4725" />
  </g>
  <g
     inkscape:groupmode="layer"
     id="layer4"
     inkscape:label="Cote"
     style="display:inline">
    <path
       style="display:inline;opacity:1;fill:none;fill-opacity:1;stroke:#000000;stroke-width:0.99921262;stroke-linecap:butt;stroke-linejoin:miter;stroke-miterlimit:4;stroke-dasharray:none;stroke-opacity:1"
       d="m 33.205509,366.84266 0,117.31446 -13.78516,0 0,12.40234 13.78516,0 0,235.62891 -13.78516,0 0,12.40234 13.78516,0 0,217.91411 -13.78516,0 0,12.4004 13.78516,0 0,235.63088 -13.78516,0 0,12.4003 13.78516,0 0,99.5997 176.167961,0 0,-99.5997 13.78711,0 0,-12.4003 -13.78711,0 0,-235.63088 13.78711,0 0,-12.4004 -13.78711,0 0,-217.91411 13.78711,0 0,-12.40234 -13.78711,0 0,-235.62891 13.78711,0 0,-12.40234 -13.78711,0 0,-117.31446 -176.167961,0 z"
       id="rect4178"
       inkscape:connector-curvature="0" />
  </g>
  <g
     inkscape:groupmode="layer"
     id="layer5"
     inkscape:label="tenons"
     style="display:inline" />
  <g
     inkscape:groupmode="layer"
     id="layer3"
     inkscape:label="tracé"
     style="display:none">
    <path
       style="fill:none;fill-opacity:1;fill-rule:evenodd;stroke:#000000;stroke-width:0.99921262;stroke-linecap:butt;stroke-linejoin:miter;stroke-miterlimit:4;stroke-dasharray:none;stroke-opacity:1"
       d="m 0,1451.8701 850.3937,0"
       id="path4807"
       inkscape:connector-curvature="0" />
    <path
       style="fill:none;fill-opacity:1;fill-rule:evenodd;stroke:#000000;stroke-width:0.99921262;stroke-linecap:butt;stroke-linejoin:miter;stroke-miterlimit:4;stroke-dasharray:none;stroke-opacity:1"
       d="m 0,1345.9571 850.3937,0"
       id="path4807-5"
       inkscape:connector-curvature="0" />
    <path
       style="fill:none;fill-opacity:1;fill-rule:evenodd;stroke:#000000;stroke-width:0.99921262;stroke-linecap:butt;stroke-linejoin:miter;stroke-miterlimit:4;stroke-dasharray:none;stroke-opacity:1"
       d="m 0,1239.6579 850.3937,0"
       id="path4807-5-6"
       inkscape:connector-curvature="0" />
    <path
       style="fill:none;fill-opacity:1;fill-rule:evenodd;stroke:#000000;stroke-width:0.99921262;stroke-linecap:butt;stroke-linejoin:miter;stroke-miterlimit:4;stroke-dasharray:none;stroke-opacity:1"
       d="m 0,1133.3587 850.3937,0"
       id="path4807-5-0"
       inkscape:connector-curvature="0" />
    <path
       style="fill:none;fill-opacity:1;fill-rule:evenodd;stroke:#000000;stroke-width:0.99921262;stroke-linecap:butt;stroke-linejoin:miter;stroke-miterlimit:4;stroke-dasharray:none;stroke-opacity:1"
       d="m 0,1027.0594 850.3937,0"
       id="path4807-5-2"
       inkscape:connector-curvature="0" />
    <path
       style="fill:none;fill-opacity:1;fill-rule:evenodd;stroke:#000000;stroke-width:0.99921262;stroke-linecap:butt;stroke-linejoin:miter;stroke-miterlimit:4;stroke-dasharray:none;stroke-opacity:1"
       d="m 0,920.76024 850.3937,0"
       id="path4807-5-7"
       inkscape:connector-curvature="0" />
    <path
       style="fill:none;fill-opacity:1;fill-rule:evenodd;stroke:#000000;stroke-width:0.99921262;stroke-linecap:butt;stroke-linejoin:miter;stroke-miterlimit:4;stroke-dasharray:none;stroke-opacity:1"
       d="m 0,814.46102 850.3937,0"
       id="path4807-5-4"
       inkscape:connector-curvature="0" />
    <rect
       style="display:inline;opacity:1;fill:none;fill-opacity:1;stroke:#000000;stroke-width:1.77165353;stroke-linecap:butt;stroke-linejoin:miter;stroke-miterlimit:4;stroke-dasharray:none;stroke-opacity:1"
       id="rect8382"
       width="97.440941"
       height="97.440941"
       x="745.12421"
       y="1145.8663"
       transform="matrix(0.89595738,0.44414003,-0.44414003,0.89595738,0,0)" />
    <rect
       style="display:inline;opacity:1;fill:none;fill-opacity:1;stroke:#000000;stroke-width:1.77165353;stroke-linecap:butt;stroke-linejoin:miter;stroke-miterlimit:4;stroke-dasharray:none;stroke-opacity:1"
       id="rect8420"
       width="97.440941"
       height="97.440948"
       x="282.66577"
       y="1701.7946"
       transform="matrix(0.8961713,-0.44370825,0.44370825,0.8961713,0,0)" />
  </g>
  <g
     inkscape:groupmode="layer"
     id="layer6"
     inkscape:label="support">
    <path
       style="opacity:1;fill:none;fill-opacity:1;stroke:#000000;stroke-width:1.77165353;stroke-linecap:butt;stroke-linejoin:miter;stroke-miterlimit:4;stroke-dasharray:none;stroke-opacity:1"
       d="m 232.08837,407.03025 0,69.09381 14.17188,0 0,108.0703 -14.17188,0 0,69.0957 14.17188,0 0,108.0703 -14.17188,0 0,69.0937 14.17188,0 1.77148,0 171.84961,0 1.77148,0 14.17383,0 0,-69.0937 -14.17383,0 0,-108.0703 14.17383,0 0,-69.0957 -14.17383,0 0,-108.0703 14.17383,0 0,-69.09381 -14.17383,0 -1.77148,0 -171.84961,0 -1.77148,0 -14.17188,0 z m 101.86914,162.99021 a 48.720474,48.72047 0 0 1 48.7207,48.7207 48.720474,48.72047 0 0 1 -48.7207,48.7207 48.720474,48.72047 0 0 1 -48.7207,-48.7207 48.720474,48.72047 0 0 1 48.7207,-48.7207 z"
       id="rect8423"
       inkscape:connector-curvature="0" />
  </g>
</svg>
